<svg width="16" height="16" viewBox="0 0 16 16" fill="none" xmlns="http://www.w3.org/2000/svg">
<path d="M15.8605 3.17522C15.8048 3.10867 15.7353 3.05513 15.6567 3.0184C15.5781 2.98167 15.4924 2.96264 15.4057 2.96265H3.45739L3.00707 0.486616C2.98227 0.350088 2.91034 0.226595 2.80381 0.137668C2.69729 0.0487407 2.56294 2.00551e-05 2.42418 0H0.592527C0.435379 0 0.284667 0.0624272 0.173547 0.173548C0.0624267 0.284669 0 0.435382 0 0.592531C0 0.74968 0.0624267 0.900392 0.173547 1.01151C0.284667 1.12263 0.435379 1.18506 0.592527 1.18506H1.92571L3.81884 11.5758C3.8746 11.884 4.01079 12.1719 4.21361 12.4106C3.93367 12.672 3.73162 13.0059 3.62986 13.3752C3.5281 13.7445 3.53061 14.1347 3.6371 14.5027C3.74359 14.8707 3.94991 15.2019 4.23318 15.4598C4.51645 15.7176 4.86559 15.892 5.2419 15.9635C5.61822 16.035 6.00699 16.001 6.36511 15.865C6.72323 15.7291 7.03671 15.4966 7.27078 15.1934C7.50485 14.8902 7.65038 14.5281 7.69121 14.1472C7.73205 13.7664 7.6666 13.3816 7.50213 13.0357H10.8662C10.7336 13.3132 10.665 13.6169 10.6655 13.9245C10.6655 14.3346 10.7871 14.7356 11.015 15.0766C11.2429 15.4177 11.5668 15.6835 11.9457 15.8405C12.3246 15.9974 12.7416 16.0385 13.1439 15.9585C13.5462 15.8785 13.9157 15.6809 14.2058 15.3909C14.4958 15.1009 14.6933 14.7314 14.7733 14.3291C14.8533 13.9268 14.8123 13.5098 14.6553 13.1308C14.4983 12.7519 14.2325 12.428 13.8915 12.2001C13.5505 11.9722 13.1495 11.8506 12.7393 11.8506H5.56753C5.42877 11.8506 5.29441 11.8019 5.18789 11.7129C5.08137 11.624 5.00944 11.5005 4.98463 11.364L4.74984 10.073H13.3415C13.7578 10.073 14.1608 9.9268 14.4804 9.66002C14.8 9.39324 15.0158 9.02276 15.0902 8.61318L15.9908 3.6611C16.0061 3.57551 16.0023 3.48761 15.9798 3.40364C15.9572 3.31967 15.9165 3.24169 15.8605 3.17522ZM6.51779 13.9245C6.51779 14.1003 6.46567 14.2721 6.36801 14.4183C6.27035 14.5644 6.13154 14.6783 5.96913 14.7456C5.80672 14.8129 5.62802 14.8305 5.45561 14.7962C5.2832 14.7619 5.12483 14.6772 5.00054 14.5529C4.87624 14.4286 4.79159 14.2703 4.75729 14.0979C4.723 13.9255 4.7406 13.7468 4.80787 13.5843C4.87514 13.4219 4.98906 13.2831 5.13522 13.1855C5.28138 13.0878 5.45322 13.0357 5.629 13.0357C5.86473 13.0357 6.09079 13.1293 6.25747 13.296C6.42415 13.4627 6.51779 13.6888 6.51779 13.9245ZM13.6281 13.9245C13.6281 14.1003 13.576 14.2721 13.4783 14.4183C13.3807 14.5644 13.2419 14.6783 13.0795 14.7456C12.917 14.8129 12.7383 14.8305 12.5659 14.7962C12.3935 14.7619 12.2352 14.6772 12.1109 14.5529C11.9866 14.4286 11.9019 14.2703 11.8676 14.0979C11.8333 13.9255 11.8509 13.7468 11.9182 13.5843C11.9855 13.4219 12.0994 13.2831 12.2455 13.1855C12.3917 13.0878 12.5635 13.0357 12.7393 13.0357C12.975 13.0357 13.2011 13.1293 13.3678 13.296C13.5345 13.4627 13.6281 13.6888 13.6281 13.9245Z" fill="white"/>
</svg>
