<svg width="12" height="15" viewBox="0 0 12 15" fill="none" xmlns="http://www.w3.org/2000/svg">
<path d="M6 0.9375C4.63295 0.939051 3.32234 1.4828 2.35569 2.44944C1.38904 3.41609 0.845301 4.7267 0.84375 6.09375C0.84375 10.5059 5.53125 13.8381 5.73105 13.9775C5.80987 14.0328 5.90377 14.0624 6 14.0624C6.09623 14.0624 6.19013 14.0328 6.26895 13.9775C6.46875 13.8381 11.1562 10.5059 11.1562 6.09375C11.1547 4.7267 10.611 3.41609 9.64431 2.44944C8.67766 1.4828 7.36705 0.939051 6 0.9375ZM6 4.21875C6.37084 4.21875 6.73335 4.32872 7.04169 4.53474C7.35004 4.74077 7.59036 5.03361 7.73227 5.37622C7.87419 5.71883 7.91132 6.09583 7.83897 6.45954C7.76663 6.82326 7.58805 7.15735 7.32583 7.41958C7.0636 7.6818 6.72951 7.86038 6.36579 7.93272C6.00208 8.00507 5.62508 7.96794 5.28247 7.82602C4.93986 7.68411 4.64702 7.44379 4.44099 7.13544C4.23497 6.8271 4.125 6.46459 4.125 6.09375C4.125 5.59647 4.32254 5.11956 4.67417 4.76792C5.02581 4.41629 5.50272 4.21875 6 4.21875Z" fill="#FF0000"/>
</svg>
