<svg width="24" height="24" viewBox="0 0 24 24" fill="none" xmlns="http://www.w3.org/2000/svg">
<path d="M14.25 8.25C14.8434 8.25 15.4234 8.07405 15.9167 7.74441C16.4101 7.41477 16.7946 6.94623 17.0217 6.39805C17.2487 5.84987 17.3081 5.24667 17.1924 4.66473C17.0766 4.08279 16.7909 3.54824 16.3713 3.12868C15.9518 2.70912 15.4172 2.4234 14.8353 2.30765C14.2533 2.19189 13.6501 2.2513 13.102 2.47836C12.5538 2.70543 12.0853 3.08994 11.7556 3.58329C11.426 4.07664 11.25 4.65666 11.25 5.25C11.25 6.04565 11.5661 6.80871 12.1287 7.37132C12.6913 7.93393 13.4544 8.25 14.25 8.25ZM14.25 3.75C14.5467 3.75 14.8367 3.83797 15.0834 4.0028C15.3301 4.16762 15.5223 4.40189 15.6358 4.67598C15.7494 4.95007 15.7791 5.25167 15.7212 5.54264C15.6633 5.83361 15.5205 6.10088 15.3107 6.31066C15.1009 6.52044 14.8336 6.6633 14.5427 6.72118C14.2517 6.77906 13.9501 6.74935 13.676 6.63582C13.4019 6.52229 13.1676 6.33003 13.0028 6.08336C12.838 5.83668 12.75 5.54667 12.75 5.25C12.75 4.85218 12.9081 4.47065 13.1894 4.18934C13.4707 3.90804 13.8522 3.75 14.25 3.75ZM20.5603 13.1888C20.5031 13.215 19.8581 13.4963 18.7163 13.4963C17.4178 13.4963 15.4772 13.1325 13.0266 11.6213C12.6536 12.6801 12.1693 13.6964 11.5819 14.6531C12.637 14.9779 13.6295 15.4791 14.5172 16.1353C16.305 17.4984 17.25 19.4391 17.25 21.75C17.25 21.9489 17.171 22.1397 17.0304 22.2803C16.8897 22.421 16.6989 22.5 16.5 22.5C16.3011 22.5 16.1103 22.421 15.9697 22.2803C15.829 22.1397 15.75 21.9489 15.75 21.75C15.75 17.8406 12.4978 16.4334 10.6744 15.9516C10.6228 16.0172 10.5694 16.0838 10.516 16.1484C8.67471 18.3797 6.36752 19.5403 3.80064 19.5403C3.50828 19.5417 3.21603 19.5282 2.92502 19.5C2.72611 19.4801 2.54324 19.382 2.41666 19.2273C2.29007 19.0726 2.23013 18.8739 2.25002 18.675C2.26991 18.4761 2.36801 18.2932 2.52272 18.1666C2.67744 18.0401 2.87611 17.9801 3.07502 18C5.50502 18.2419 7.61908 17.2978 9.35627 15.1875C10.5272 13.7681 11.325 12.0366 11.7235 10.7813C8.07471 8.65781 5.74408 10.4653 5.71877 10.485C5.64237 10.5502 5.55364 10.5995 5.45786 10.6297C5.36207 10.66 5.26117 10.6708 5.16115 10.6613C5.06114 10.6519 4.96404 10.6224 4.87562 10.5747C4.78721 10.527 4.70928 10.462 4.64646 10.3836C4.58364 10.3052 4.53721 10.215 4.50993 10.1183C4.48265 10.0216 4.47507 9.92045 4.48764 9.82077C4.50022 9.7211 4.53269 9.62497 4.58313 9.53809C4.63357 9.45121 4.70095 9.37534 4.78127 9.315C4.92189 9.2025 8.27064 6.59625 13.1728 9.93094C17.4356 12.8288 19.9163 11.835 19.9397 11.8238C20.0296 11.7813 20.127 11.7572 20.2262 11.7527C20.3255 11.7482 20.4247 11.7635 20.518 11.7977C20.6113 11.8319 20.6968 11.8843 20.7697 11.9518C20.8426 12.0193 20.9014 12.1007 20.9425 12.1911C20.9837 12.2816 21.0065 12.3793 21.0096 12.4786C21.0127 12.5779 20.996 12.6769 20.9606 12.7697C20.9251 12.8625 20.8715 12.9473 20.803 13.0193C20.7344 13.0912 20.6523 13.1488 20.5613 13.1888H20.5603Z" fill="black"/>
</svg>
