<svg width="31" height="28" viewBox="0 0 31 28" fill="none" xmlns="http://www.w3.org/2000/svg">
<g filter="url(#filter0_d_93_387)">
<path d="M25.4082 0.244629H5.96146C5.4457 0.244629 4.95106 0.449513 4.58637 0.81421C4.22167 1.17891 4.01678 1.67354 4.01678 2.1893V21.636C4.01678 22.1518 4.22167 22.6464 4.58637 23.0111C4.95106 23.3758 5.4457 23.5807 5.96146 23.5807H25.4082C25.9239 23.5807 26.4186 23.3758 26.7833 23.0111C27.148 22.6464 27.3528 22.1518 27.3528 21.636V2.1893C27.3528 1.67354 27.148 1.17891 26.7833 0.81421C26.4186 0.449513 25.9239 0.244629 25.4082 0.244629ZM22.4912 12.885H16.6572V18.719C16.6572 18.9769 16.5547 19.2242 16.3724 19.4066C16.19 19.5889 15.9427 19.6913 15.6848 19.6913C15.4269 19.6913 15.1796 19.5889 14.9973 19.4066C14.8149 19.2242 14.7125 18.9769 14.7125 18.719V12.885H8.87846C8.62059 12.885 8.37327 12.7826 8.19092 12.6002C8.00857 12.4179 7.90613 12.1705 7.90613 11.9127C7.90613 11.6548 8.00857 11.4075 8.19092 11.2251C8.37327 11.0428 8.62059 10.9403 8.87846 10.9403H14.7125V5.10631C14.7125 4.84843 14.8149 4.60111 14.9973 4.41876C15.1796 4.23642 15.4269 4.13397 15.6848 4.13397C15.9427 4.13397 16.19 4.23642 16.3724 4.41876C16.5547 4.60111 16.6572 4.84843 16.6572 5.10631V10.9403H22.4912C22.7491 10.9403 22.9964 11.0428 23.1787 11.2251C23.3611 11.4075 23.4635 11.6548 23.4635 11.9127C23.4635 12.1705 23.3611 12.4179 23.1787 12.6002C22.9964 12.7826 22.7491 12.885 22.4912 12.885Z" fill="white"/>
</g>
<defs>
<filter id="filter0_d_93_387" x="0.825528" y="0.244629" width="29.7186" height="29.7187" filterUnits="userSpaceOnUse" color-interpolation-filters="sRGB">
<feFlood flood-opacity="0" result="BackgroundImageFix"/>
<feColorMatrix in="SourceAlpha" type="matrix" values="0 0 0 0 0 0 0 0 0 0 0 0 0 0 0 0 0 0 127 0" result="hardAlpha"/>
<feOffset dy="3.19126"/>
<feGaussianBlur stdDeviation="1.59563"/>
<feComposite in2="hardAlpha" operator="out"/>
<feColorMatrix type="matrix" values="0 0 0 0 0 0 0 0 0 0 0 0 0 0 0 0 0 0 0.25 0"/>
<feBlend mode="normal" in2="BackgroundImageFix" result="effect1_dropShadow_93_387"/>
<feBlend mode="normal" in="SourceGraphic" in2="effect1_dropShadow_93_387" result="shape"/>
</filter>
</defs>
</svg>
